<?xml version="1.0" encoding="utf-8"?>
<!-- Generator: Adobe Illustrator 25.3.1, SVG Export Plug-In . SVG Version: 6.00 Build 0)  -->
<svg version="1.1" id="Layer_1" xmlns="http://www.w3.org/2000/svg" xmlns:xlink="http://www.w3.org/1999/xlink" x="0px" y="0px"
	 viewBox="0 0 960 560" style="enable-background:new 0 0 960 560;" xml:space="preserve">
<style type="text/css">
	.st0{fill:#FFFFFF;}
</style>
<g>
	<path class="st0" d="M447.78,52h241.99c5.04,0,8.82,2.52,9.45,6.93l11.34,80.03c0.63,3.15-2.52,6.3-6.93,6.93
		c-4.41,0.63-7.56-0.63-8.82-4.41c-6.3-20.17-39.7-71.84-92.64-71.84h-37.81v164.47h21.43c32.14,0,62.39-13.86,64.91-52.3
		c0.63-3.78,3.78-6.3,7.56-6.3c5.04,0,8.19,2.52,7.56,6.3c-1.89,38.44-2.52,83.18,0,122.88c0.63,3.15-2.52,5.67-6.93,5.67h-0.63
		c-3.78,0-6.93-2.52-7.56-5.67c-2.52-37.18-29.62-51.67-60.5-52.93h-25.84v63.02c0,46.63,12.6,66.8,25.84,73.1
		c6.3,3.15,9.45,5.67,9.45,9.45c0,4.41-4.41,7.56-10.08,7.56H447.78c-6.3,0-10.08-3.15-10.08-7.56c0-3.78,3.15-6.3,9.45-9.45
		c13.24-6.3,25.84-26.47,25.84-73.1V135.81c-1.26-42.22-13.86-60.5-25.84-66.8c-6.3-3.15-9.45-5.67-9.45-9.45
		C437.7,55.15,441.48,52,447.78,52z"/>
</g>
<g>
	<path class="st0" d="M468.79,59.56c0,3.78-3.15,6.3-9.45,9.45c-11.98,6.3-24.58,24.58-25.84,66.8v178.97
		c0,46.63,12.6,66.8,25.84,73.1c6.3,3.15,9.45,5.67,9.45,9.45c0,4.41-3.78,7.56-10.08,7.56H316.92c-5.67,0-10.08-3.15-10.08-7.56
		c0-3.78,3.15-6.3,9.45-9.45c13.23-6.3,25.84-26.47,25.84-73.1v-63.02h-25.84c-30.88,1.26-57.98,15.75-60.5,52.93
		c-0.63,3.15-3.78,5.67-7.56,5.67h-0.63c-4.41,0-7.56-2.52-6.93-5.67c2.52-39.7,1.89-84.44,0-122.88c-0.63-3.78,2.52-6.3,7.56-6.3
		c3.78,0,6.93,2.52,7.56,6.3c2.52,38.44,32.77,52.3,64.91,52.3h21.43V69.64h-37.81c-52.93,0-86.34,51.68-92.64,71.84
		c-1.26,3.78-4.41,5.04-8.82,4.41c-4.41-0.63-7.56-3.78-6.93-6.93l11.34-80.03c0.63-4.41,4.41-6.93,9.45-6.93h241.99
		C465.01,52,468.79,55.15,468.79,59.56z"/>
</g>
<g>
	<path class="st0" d="M240.62,416.6h33.87c0.71,0,1.23,0.35,1.32,0.97l1.59,11.2c0.09,0.44-0.35,0.88-0.97,0.97
		c-0.62,0.09-1.06-0.09-1.23-0.62c-0.88-2.82-5.56-10.06-12.96-10.06h-5.29v23.02h3c4.5,0,8.73-1.94,9.09-7.32
		c0.09-0.53,0.53-0.88,1.06-0.88c0.71,0,1.14,0.35,1.06,0.88c-0.27,5.38-0.35,11.64,0,17.2c0.09,0.44-0.35,0.79-0.97,0.79h-0.09
		c-0.53,0-0.97-0.35-1.06-0.79c-0.35-5.2-4.15-7.23-8.47-7.41h-3.61v8.82c0,6.53,1.76,9.35,3.61,10.23
		c0.88,0.44,1.33,0.79,1.33,1.32c0,0.62-0.62,1.06-1.41,1.06h-19.85c-0.88,0-1.41-0.44-1.41-1.06c0-0.53,0.44-0.88,1.32-1.32
		c1.85-0.88,3.62-3.7,3.62-10.23v-25.05c-0.18-5.91-1.94-8.47-3.62-9.35c-0.88-0.44-1.32-0.79-1.32-1.32
		C239.21,417.04,239.74,416.6,240.62,416.6z"/>
	<path class="st0" d="M279.44,463.62c1.67-0.79,3.44-3.44,3.61-9.26v-26.02c-0.18-5.91-1.94-8.47-3.61-9.35
		c-0.89-0.44-1.33-0.79-1.33-1.32c0-0.62,0.53-1.06,1.41-1.06h19.85c0.8,0,1.41,0.44,1.41,1.06c0,0.53-0.44,0.88-1.32,1.32
		c-1.85,0.88-3.62,3.7-3.62,10.23v24.17c0,6.53,1.76,9.35,3.62,10.23c0.88,0.44,1.32,0.79,1.32,1.32c0,0.62-0.62,1.06-1.41,1.06
		h-19.85c-0.88,0-1.41-0.44-1.41-1.06C278.11,464.41,278.55,464.06,279.44,463.62z"/>
	<path class="st0" d="M339.16,465.03c-0.09,0.53-0.71,0.97-1.41,0.97h-34.76c-0.88,0-1.41-0.44-1.41-1.06
		c0-0.53,0.44-0.88,1.33-1.32c1.85-0.88,3.61-3.7,3.61-10.23v-24.17c0-6.62-1.76-9.35-3.61-10.23c-0.89-0.44-1.33-0.79-1.33-1.32
		c0-0.62,0.53-1.06,1.41-1.06h19.94c0.71,0,1.32,0.44,1.32,1.06c0,0.53-0.44,0.88-1.32,1.32c-1.85,0.88-3.62,3.62-3.62,10.23v34.31
		h4.5c7.94,0,13.58-9.7,15-14.55c0.18-0.44,0.71-0.62,1.23-0.53c0.53,0.09,0.88,0.44,0.88,0.88L339.16,465.03z"/>
	<path class="st0" d="M370.48,461.94c-0.71,0-1.41-0.35-1.58-0.88l-16.85-36.61l-1.76,27.79c-0.35,5.65,3.53,10.14,6.08,11.29
		c0.89,0.44,1.33,0.88,1.33,1.41c0,0.62-0.53,1.06-1.41,1.06h-13.76c-0.79,0-1.41-0.44-1.41-1.06c0-0.53,0.53-1.06,1.41-1.32
		c2.82-1.23,4.94-5.73,5.29-11.47l1.41-22.93c0-6.62-2.38-9.35-4.76-10.23c-1.23-0.44-1.67-0.79-1.67-1.32
		c0-0.62,0.71-1.06,1.76-1.06h15.96c0.71,0,1.41,0.35,1.59,0.88l12.44,28.49l9.7-29.37h16.67c1.15,0,1.85,0.44,1.85,1.06
		c0,0.53-0.62,0.88-1.76,1.32c-2.3,0.88-3.8,3.44-3.44,9.62l1.76,26.9c0.88,5.91,2.82,7.32,4.41,8.12c0.88,0.44,1.32,0.79,1.32,1.32
		c0,0.62-0.53,1.06-1.41,1.06H383.8c-1.68,0-2.03-1.59,0-2.38c1.5-0.79,2.82-2.82,2.82-7.85l-2.03-32.64l-12.44,37.93
		c-0.18,0.53-0.79,0.88-1.59,0.88H370.48z"/>
	<path class="st0" d="M425.45,416.6h33.87c0.71,0,1.23,0.35,1.32,0.97l1.59,11.2c0.09,0.44-0.35,0.88-0.97,0.97
		c-0.62,0.09-1.06-0.09-1.23-0.62c-0.88-2.82-5.56-10.06-12.96-10.06h-5.29v23.02h3c4.5,0,8.73-1.94,9.09-7.32
		c0.09-0.53,0.53-0.88,1.06-0.88c0.71,0,1.14,0.35,1.06,0.88c-0.27,5.38-0.35,11.64,0,17.2c0.09,0.44-0.35,0.79-0.97,0.79h-0.09
		c-0.53,0-0.97-0.35-1.06-0.79c-0.35-5.2-4.15-7.23-8.47-7.41h-3.61v8.82c0,6.53,1.76,9.35,3.61,10.23
		c0.88,0.44,1.33,0.79,1.33,1.32c0,0.62-0.62,1.06-1.41,1.06h-19.85c-0.88,0-1.41-0.44-1.41-1.06c0-0.53,0.44-0.88,1.32-1.32
		c1.85-0.88,3.62-3.7,3.62-10.23v-25.05c-0.18-5.91-1.94-8.47-3.62-9.35c-0.88-0.44-1.32-0.79-1.32-1.32
		C424.04,417.04,424.57,416.6,425.45,416.6z"/>
	<path class="st0" d="M464.27,463.62c1.67-0.79,3.44-3.44,3.61-9.26v-26.02c-0.18-5.91-1.94-8.47-3.61-9.35
		c-0.89-0.44-1.33-0.79-1.33-1.32c0-0.62,0.53-1.06,1.41-1.06h19.85c0.8,0,1.41,0.44,1.41,1.06c0,0.53-0.44,0.88-1.32,1.32
		c-1.85,0.88-3.62,3.7-3.62,10.23v24.17c0,6.53,1.76,9.35,3.62,10.23c0.88,0.44,1.32,0.79,1.32,1.32c0,0.62-0.62,1.06-1.41,1.06
		h-19.85c-0.88,0-1.41-0.44-1.41-1.06C462.95,464.41,463.39,464.06,464.27,463.62z"/>
	<path class="st0" d="M532.11,465.12c0,0.53-0.53,0.88-1.23,0.88c-0.79,0-1.59-0.26-1.94-0.79l-33.52-38.9v25.93
		c0,5.65,3.53,10.14,6.09,11.29c0.88,0.44,1.32,0.88,1.32,1.41c0,0.62-0.53,1.06-1.41,1.06h-13.76c-0.8,0-1.41-0.44-1.41-1.06
		c0-0.53,0.53-1.06,1.41-1.32c2.82-1.23,5.29-5.73,5.29-11.47v-22.93c0-6.62-2.29-9.35-4.68-10.23c-1.23-0.44-1.67-0.79-1.67-1.32
		c0-0.62,0.71-1.06,1.76-1.06h15.08l26.2,29.64v-15.88c0-5.65-3.53-10.06-6.09-11.29c-0.88-0.35-1.32-0.88-1.32-1.41
		c0-0.62,0.62-1.06,1.41-1.06h13.67c0.8,0,1.41,0.44,1.41,1.06c0,0.53-0.53,1.06-1.32,1.41c-2.82,1.15-5.29,5.73-5.29,11.38V465.12z
		"/>
	<path class="st0" d="M540.68,416.6h18.52c17.73,0,26.64,12.35,26.64,24.7s-8.91,24.7-26.73,24.7h-18.44
		c-0.88,0-1.41-0.44-1.41-1.06c0-0.53,0.44-0.88,1.32-1.32c1.68-0.79,3.44-3.44,3.62-9.26v-26.02c-0.18-5.91-1.94-8.47-3.62-9.35
		c-0.88-0.44-1.32-0.79-1.32-1.32C539.26,417.04,539.79,416.6,540.68,416.6z M557,418.72v45.16h2.2c18.17,0,18.17-45.16,0-45.16H557
		z"/>
	<path class="st0" d="M626.52,465.03c-0.09,0.62-0.71,0.97-1.41,0.97h-34.76c-0.88,0-1.41-0.44-1.41-1.06
		c0-0.53,0.44-0.88,1.33-1.32c1.85-0.88,3.61-3.7,3.61-10.23v-24.17c0-6.62-1.76-9.35-3.61-10.23c-0.89-0.44-1.33-0.79-1.33-1.32
		c0-0.62,0.53-1.06,1.41-1.06h32.99c0.71,0,1.32,0.35,1.41,0.97l1.5,11.2c0.09,0.44-0.35,0.79-0.89,0.97
		c-0.62,0.09-1.14-0.26-1.32-0.71c-0.88-2.73-5.47-9.97-12.97-9.97h-4.41v20.99h3.8c4.5,0,8.64-1.94,9.09-7.41
		c0-0.44,0.44-0.79,1.06-0.79c0.62,0,1.14,0.35,1.06,0.79c-0.27,5.73-0.27,11.47,0,17.2c0.09,0.44-0.44,0.79-1.06,0.79
		c-0.62,0-1.06-0.35-1.06-0.79c-0.44-5.47-4.59-7.32-9.09-7.32h-3.8v20.99h4.5c7.94,0,13.76-7.06,15.53-11.38
		c0.18-0.44,0.71-0.71,1.23-0.62c0.71,0,1.06,0.35,0.97,0.88L626.52,465.03z"/>
	<path class="st0" d="M664.89,466c-4.5,0-7.94-2.29-8.64-5.73c-1.06-6.7-3-15.79-9-16.5c-0.09,0-0.18,0-0.26,0.09v10.23
		c0.09,6.09,1.85,8.64,3.61,9.53c0.88,0.44,1.33,0.79,1.33,1.32c0,0.62-0.62,1.06-1.33,1.06h-19.94c-0.88,0-1.41-0.44-1.41-1.06
		c0-0.53,0.44-0.88,1.32-1.32c1.85-0.88,3.62-3.7,3.62-10.23v-24.17c0-6.62-1.76-9.35-3.62-10.23c-0.88-0.44-1.32-0.79-1.32-1.32
		c0-0.62,0.53-1.06,1.41-1.06h20.56c17.73,0,20.64,5.91,20.64,11.64c0,6.09-7.93,10.76-17.2,13.67
		c16.05-0.44,14.56,19.41,21.08,21.79c0.97,0.35,1.33,0.71,1.33,1.23c0,0.62-0.53,1.06-1.33,1.06H664.89z M646.99,419.07v22.23
		c6.44-2.12,11.2-6.09,11.2-11.91c0-5.65-3.35-10.32-9.62-10.32H646.99z"/>
</g>
</svg>
